<svg width="177" height="42" viewBox="0 0 177 42" fill="none" xmlns="http://www.w3.org/2000/svg">
<path d="M47.868 8.59258H56.366V11.0846H51.116V12.2186H53.454C54.6487 12.2186 55.5633 12.4752 56.198 12.9886C56.842 13.4926 57.164 14.2252 57.164 15.1866C57.164 16.1852 56.8 16.9692 56.072 17.5386C55.344 18.1079 54.3313 18.3926 53.034 18.3926H47.868V8.59258ZM52.81 16.0826C53.1367 16.0826 53.3887 16.0126 53.566 15.8726C53.7527 15.7326 53.846 15.5319 53.846 15.2706C53.846 14.7666 53.5007 14.5146 52.81 14.5146H51.116V16.0826H52.81ZM58.2996 8.59258H61.5476V13.6886L64.9216 8.59258H68.0296V18.3926H64.7816V13.3106L61.4216 18.3926H58.2996V8.59258ZM69.7703 8.59258H78.2683V11.0846H73.0183V12.2186H75.3563C76.551 12.2186 77.4657 12.4752 78.1003 12.9886C78.7443 13.4926 79.0663 14.2252 79.0663 15.1866C79.0663 16.1852 78.7023 16.9692 77.9743 17.5386C77.2463 18.1079 76.2337 18.3926 74.9363 18.3926H69.7703V8.59258ZM74.7123 16.0826C75.039 16.0826 75.291 16.0126 75.4683 15.8726C75.655 15.7326 75.7483 15.5319 75.7483 15.2706C75.7483 14.7666 75.403 14.5146 74.7123 14.5146H73.0183V16.0826H74.7123ZM89.5589 8.59258V18.3926H86.3109V11.1546H84.0709L84.0429 12.2886C84.0056 13.6886 83.8936 14.8366 83.7069 15.7326C83.5202 16.6286 83.1936 17.3286 82.7269 17.8326C82.2602 18.3272 81.5929 18.5746 80.7249 18.5746C80.2862 18.5746 79.8196 18.5139 79.3249 18.3926L79.4929 15.7466C79.6142 15.7746 79.7356 15.7886 79.8569 15.7886C80.2022 15.7886 80.4636 15.6486 80.6409 15.3686C80.8276 15.0886 80.9536 14.7152 81.0189 14.2486C81.0842 13.7819 81.1309 13.1706 81.1589 12.4146L81.2849 8.59258H89.5589ZM91.2899 8.59258H94.5379V13.6886L97.9119 8.59258H101.02V18.3926H97.7719V13.3106L94.4119 18.3926H91.2899V8.59258ZM107.745 18.6166C106.69 18.6166 105.743 18.3972 104.903 17.9586C104.063 17.5199 103.405 16.9132 102.929 16.1386C102.453 15.3546 102.215 14.4726 102.215 13.4926C102.215 12.5126 102.453 11.6352 102.929 10.8606C103.405 10.0766 104.063 9.46524 104.903 9.02658C105.743 8.58791 106.69 8.36858 107.745 8.36858C108.799 8.36858 109.747 8.58791 110.587 9.02658C111.427 9.46524 112.085 10.0766 112.561 10.8606C113.037 11.6352 113.275 12.5126 113.275 13.4926C113.275 14.4726 113.037 15.3546 112.561 16.1386C112.085 16.9132 111.427 17.5199 110.587 17.9586C109.747 18.3972 108.799 18.6166 107.745 18.6166ZM107.745 15.9426C108.155 15.9426 108.524 15.8446 108.851 15.6486C109.187 15.4432 109.453 15.1586 109.649 14.7946C109.845 14.4212 109.943 13.9872 109.943 13.4926C109.943 12.9979 109.845 12.5686 109.649 12.2046C109.453 11.8312 109.187 11.5466 108.851 11.3506C108.524 11.1452 108.155 11.0426 107.745 11.0426C107.334 11.0426 106.961 11.1452 106.625 11.3506C106.298 11.5466 106.037 11.8312 105.841 12.2046C105.645 12.5686 105.547 12.9979 105.547 13.4926C105.547 13.9872 105.645 14.4212 105.841 14.7946C106.037 15.1586 106.298 15.4432 106.625 15.6486C106.961 15.8446 107.334 15.9426 107.745 15.9426ZM122.671 11.1546H119.801V18.3926H116.553V11.1546H113.683V8.59258H122.671V11.1546ZM131.909 15.9006V18.3926H123.761V8.59258H131.727V11.0846H127.009V12.2326H131.153V14.6126H127.009V15.9006H131.909ZM142.223 8.59258V18.3926H138.975V15.2566C138.322 15.4526 137.729 15.5506 137.197 15.5506C135.76 15.5506 134.663 15.2099 133.907 14.5286C133.16 13.8472 132.787 12.8532 132.787 11.5466V8.59258H136.035V11.1826C136.035 11.7799 136.166 12.2232 136.427 12.5126C136.688 12.7926 137.085 12.9326 137.617 12.9326C138.168 12.9326 138.62 12.8579 138.975 12.7086V8.59258H142.223ZM153.614 8.59258V18.3926H150.31V14.7806H147.258V18.3926H143.954V8.59258H147.258V12.0646H150.31V8.59258H153.614ZM162.272 16.6846H158.548L157.89 18.3926H154.53L158.814 8.59258H162.062L166.346 18.3926H162.93L162.272 16.6846ZM161.362 14.3046L160.41 11.8406L159.458 14.3046H161.362ZM175.286 8.59258V18.3926H172.038V16.0686H171.156L169.658 18.3926H166.2L168.132 15.5926C167.498 15.2939 167.008 14.8739 166.662 14.3326C166.326 13.7819 166.158 13.1332 166.158 12.3866C166.158 11.6119 166.34 10.9399 166.704 10.3706C167.078 9.80124 167.605 9.36258 168.286 9.05458C168.968 8.74658 169.77 8.59258 170.694 8.59258H175.286ZM170.75 11.1406C169.91 11.1406 169.49 11.5372 169.49 12.3306C169.49 13.1612 169.91 13.5766 170.75 13.5766H172.038V11.1406H170.75Z" fill="#4D2900"/>
<path d="M56.318 32.3926L53.51 29.0126L54.277 28.5576L57.41 32.3926H56.318ZM51.313 32.3926V25.5676H52.236V32.3926H51.313ZM51.95 29.3506V28.5576H54.147V29.3506H51.95ZM54.355 29.0776L53.497 28.9476L56.214 25.5676H57.215L54.355 29.0776ZM58.8667 32.3926V25.5676H59.7897V28.5836H64.0927V25.5676H65.0157V32.3926H64.0927V29.3766H59.7897V32.3926H58.8667ZM67.6392 32.3926V25.5676H68.5622V30.9886L73.1252 25.5676H73.9442V32.3926H73.0212V26.9586L68.4712 32.3926H67.6392ZM84.6884 32.3926L82.3484 29.0126L83.1154 28.5576L85.7934 32.3926H84.6884ZM80.8144 29.3506V28.5576H82.9724V29.3506H80.8144ZM83.2064 29.0776L82.3224 28.9476L84.5974 25.5676H85.5984L83.2064 29.0776ZM76.6024 32.3926H75.4974L78.1754 28.5576L78.9294 29.0126L76.6024 32.3926ZM81.1004 32.3926H80.1774V25.5676H81.1004V32.3926ZM80.4634 29.3506H78.3184V28.5576H80.4634V29.3506ZM78.0974 29.0776L75.6924 25.5676H76.6934L78.9554 28.9476L78.0974 29.0776ZM87.3296 32.3926V25.5676H88.2526V28.5836H92.5556V25.5676H93.4786V32.3926H92.5556V29.3766H88.2526V32.3926H87.3296ZM102.758 32.3926V25.5676H103.681V32.3926H102.758ZM98.9751 27.9726C99.8331 27.9812 100.487 28.1719 100.938 28.5446C101.389 28.9172 101.614 29.4546 101.614 30.1566C101.614 30.8846 101.371 31.4436 100.886 31.8336C100.401 32.2236 99.7074 32.4142 98.8061 32.4056L96.1021 32.3926V25.5676H97.0251V27.9466L98.9751 27.9726ZM98.7411 31.7036C99.3824 31.7122 99.8634 31.5866 100.184 31.3266C100.513 31.0579 100.678 30.6679 100.678 30.1566C100.678 29.6452 100.518 29.2726 100.197 29.0386C99.8764 28.7959 99.3911 28.6702 98.7411 28.6616L97.0251 28.6356V31.6776L98.7411 31.7036ZM106.309 32.3926V25.5676H107.232V30.9886L111.795 25.5676H112.614V32.3926H111.691V26.9586L107.141 32.3926H106.309ZM109.403 24.5796C108.831 24.5796 108.367 24.4366 108.012 24.1506C107.665 23.8559 107.483 23.4356 107.466 22.8896H108.129C108.138 23.2362 108.259 23.5092 108.493 23.7086C108.727 23.9079 109.03 24.0076 109.403 24.0076C109.776 24.0076 110.079 23.9079 110.313 23.7086C110.556 23.5092 110.681 23.2362 110.69 22.8896H111.353C111.344 23.4356 111.162 23.8559 110.807 24.1506C110.452 24.4366 109.984 24.5796 109.403 24.5796ZM123.667 32.3926L120.859 29.0126L121.626 28.5576L124.759 32.3926H123.667ZM118.662 32.3926V25.5676H119.585V32.3926H118.662ZM119.299 29.3506V28.5576H121.496V29.3506H119.299ZM121.704 29.0776L120.846 28.9476L123.563 25.5676H124.564L121.704 29.0776ZM130.326 32.3926V30.8846L130.287 30.6376V28.1156C130.287 27.5349 130.123 27.0886 129.793 26.7766C129.473 26.4646 128.992 26.3086 128.35 26.3086C127.908 26.3086 127.488 26.3822 127.089 26.5296C126.691 26.6769 126.353 26.8719 126.075 27.1146L125.659 26.4256C126.006 26.1309 126.422 25.9056 126.907 25.7496C127.393 25.5849 127.904 25.5026 128.441 25.5026C129.325 25.5026 130.006 25.7236 130.482 26.1656C130.968 26.5989 131.21 27.2619 131.21 28.1546V32.3926H130.326ZM127.973 32.4576C127.462 32.4576 127.016 32.3752 126.634 32.2106C126.262 32.0372 125.976 31.8032 125.776 31.5086C125.577 31.2052 125.477 30.8586 125.477 30.4686C125.477 30.1132 125.56 29.7926 125.724 29.5066C125.898 29.2119 126.175 28.9779 126.556 28.8046C126.946 28.6226 127.466 28.5316 128.116 28.5316H130.469V29.2206H128.142C127.484 29.2206 127.024 29.3376 126.764 29.5716C126.513 29.8056 126.387 30.0959 126.387 30.4426C126.387 30.8326 126.539 31.1446 126.842 31.3786C127.146 31.6126 127.57 31.7296 128.116 31.7296C128.636 31.7296 129.083 31.6126 129.455 31.3786C129.837 31.1359 130.114 30.7892 130.287 30.3386L130.495 30.9756C130.322 31.4262 130.019 31.7859 129.585 32.0546C129.161 32.3232 128.623 32.4576 127.973 32.4576ZM134.967 32.3926V26.1266L135.201 26.3736H132.38V25.5676H138.477V26.3736H135.656L135.89 26.1266V32.3926H134.967ZM144.05 32.3926V30.8846L144.011 30.6376V28.1156C144.011 27.5349 143.846 27.0886 143.517 26.7766C143.196 26.4646 142.715 26.3086 142.074 26.3086C141.632 26.3086 141.212 26.3822 140.813 26.5296C140.414 26.6769 140.076 26.8719 139.799 27.1146L139.383 26.4256C139.73 26.1309 140.146 25.9056 140.631 25.7496C141.116 25.5849 141.628 25.5026 142.165 25.5026C143.049 25.5026 143.729 25.7236 144.206 26.1656C144.691 26.5989 144.934 27.2619 144.934 28.1546V32.3926H144.05ZM141.697 32.4576C141.186 32.4576 140.739 32.3752 140.358 32.2106C139.985 32.0372 139.699 31.8032 139.5 31.5086C139.301 31.2052 139.201 30.8586 139.201 30.4686C139.201 30.1132 139.283 29.7926 139.448 29.5066C139.621 29.2119 139.899 28.9779 140.28 28.8046C140.67 28.6226 141.19 28.5316 141.84 28.5316H144.193V29.2206H141.866C141.207 29.2206 140.748 29.3376 140.488 29.5716C140.237 29.8056 140.111 30.0959 140.111 30.4426C140.111 30.8326 140.263 31.1446 140.566 31.3786C140.869 31.6126 141.294 31.7296 141.84 31.7296C142.36 31.7296 142.806 31.6126 143.179 31.3786C143.56 31.1359 143.838 30.7892 144.011 30.3386L144.219 30.9756C144.046 31.4262 143.742 31.7859 143.309 32.0546C142.884 32.3232 142.347 32.4576 141.697 32.4576ZM146.143 32.3796L146.208 31.5866C146.269 31.5952 146.325 31.6082 146.377 31.6256C146.438 31.6342 146.49 31.6386 146.533 31.6386C146.81 31.6386 147.031 31.5346 147.196 31.3266C147.369 31.1186 147.499 30.8412 147.586 30.4946C147.673 30.1479 147.733 29.7579 147.768 29.3246C147.803 28.8826 147.833 28.4406 147.859 27.9986L147.976 25.5676H152.981V32.3926H152.058V26.1006L152.292 26.3736H148.574L148.795 26.0876L148.691 28.0636C148.665 28.6529 148.617 29.2162 148.548 29.7536C148.487 30.2909 148.388 30.7632 148.249 31.1706C148.119 31.5779 147.937 31.8986 147.703 32.1326C147.469 32.3579 147.17 32.4706 146.806 32.4706C146.702 32.4706 146.594 32.4619 146.481 32.4446C146.377 32.4272 146.264 32.4056 146.143 32.3796ZM158.413 32.4576C157.754 32.4576 157.161 32.3102 156.632 32.0156C156.112 31.7122 155.7 31.3006 155.397 30.7806C155.094 30.2519 154.942 29.6496 154.942 28.9736C154.942 28.2889 155.094 27.6866 155.397 27.1666C155.7 26.6466 156.112 26.2392 156.632 25.9446C157.152 25.6499 157.746 25.5026 158.413 25.5026C159.089 25.5026 159.687 25.6499 160.207 25.9446C160.736 26.2392 161.147 26.6466 161.442 27.1666C161.745 27.6866 161.897 28.2889 161.897 28.9736C161.897 29.6496 161.745 30.2519 161.442 30.7806C161.147 31.3006 160.736 31.7122 160.207 32.0156C159.678 32.3102 159.08 32.4576 158.413 32.4576ZM158.413 31.6386C158.907 31.6386 159.345 31.5302 159.726 31.3136C160.107 31.0882 160.406 30.7762 160.623 30.3776C160.848 29.9702 160.961 29.5022 160.961 28.9736C160.961 28.4362 160.848 27.9682 160.623 27.5696C160.406 27.1709 160.107 26.8632 159.726 26.6466C159.345 26.4212 158.911 26.3086 158.426 26.3086C157.941 26.3086 157.507 26.4212 157.126 26.6466C156.745 26.8632 156.441 27.1709 156.216 27.5696C155.991 27.9682 155.878 28.4362 155.878 28.9736C155.878 29.5022 155.991 29.9702 156.216 30.3776C156.441 30.7762 156.745 31.0882 157.126 31.3136C157.507 31.5302 157.936 31.6386 158.413 31.6386ZM163.87 32.3926V25.5676H168.706V26.3736H164.559L164.793 26.1396V32.3926H163.87Z" fill="#241400"/>
<line x1="48" y1="20.8926" x2="175" y2="20.8926" stroke="black" stroke-opacity="0.59"/>
<g clip-path="url(#clip0_0_206)">
<path d="M39.0037 14.9043C38.8339 13.6275 38.81 11.4285 39.9958 10.6901C40.017 10.6766 40.0328 10.657 40.0514 10.6402C41.0209 10.3301 41.6919 9.89492 41.1652 9.30931L26.8633 5L3.70522 8.2197C3.70522 8.2197 1.05333 8.59874 1.29023 12.7188C1.41883 14.9612 2.12213 16.0624 2.73719 16.6044L0.836863 17.1771C0.309419 17.7627 0.980256 18.1981 1.94991 18.5076C1.96834 18.5249 1.98388 18.5444 2.00544 18.5579C3.19056 19.2969 3.16775 21.4957 2.99728 22.7727C-1.26025 23.9817 0.268056 24.3756 0.268056 24.3756L1.20199 24.6016C0.545064 25.1952 -0.107347 26.3209 0.0148627 28.4559C0.251887 32.5752 2.4301 32.8595 2.4301 32.8595L17.5846 37.7852L40.4585 32.2448C40.4585 32.2448 41.9873 31.8502 37.7286 30.6412C37.5574 29.3662 37.5336 27.1676 38.7215 26.4267C38.7433 26.4136 38.7592 26.3936 38.7769 26.3771C39.7465 26.067 40.4169 25.6322 39.89 25.0466L38.8958 24.7464C39.5589 24.3465 40.5549 23.3015 40.7109 20.5871C40.8186 18.72 40.3315 17.6265 39.7677 16.9827L41.7328 16.5072C41.733 16.5079 43.2618 16.1133 39.0037 14.9043ZM19.8711 14.8515L23.7176 14.061L36.7167 11.3896L38.6534 10.9913C38.0346 12.1239 38.0605 13.6739 38.1629 14.6701C38.1854 14.8955 38.2112 15.1013 38.2363 15.2577L36.1165 15.7848L19.7094 19.8664L19.8711 14.8515ZM3.34799 18.8604L5.28442 19.2587L17.7682 21.825L18.8588 22.0484L22.1294 22.7206L22.2907 27.7356L5.42781 23.5402L3.76538 23.1271C3.78982 22.9704 3.81565 22.7648 3.83908 22.5388C3.94086 21.5433 3.96731 19.993 3.34799 18.8604ZM2.59568 12.5205C2.57224 11.4246 2.76753 10.6321 3.16223 10.2292C3.41342 9.972 3.70986 9.91848 3.91316 9.91848C4.02058 9.91848 4.09792 9.9334 4.10318 9.9334L14.0814 13.1864L19.0596 14.8095L18.8963 19.8595L4.93032 15.944L4.1933 15.7376C4.16623 15.7299 4.1295 15.7246 4.10118 15.7234C4.04364 15.7193 2.66286 15.5922 2.59568 12.5205ZM17.6207 35.5974L2.91806 31.4753C2.89086 31.4674 2.85451 31.4622 2.82619 31.4608C2.76765 31.4569 1.38624 31.3299 1.31943 28.259C1.29562 27.1617 1.49191 26.3699 1.88586 25.9667C2.13768 25.7095 2.43424 25.656 2.63717 25.656C2.74484 25.656 2.82192 25.6704 2.82756 25.6704C2.82756 25.6704 2.82819 25.6704 2.82756 25.6704L17.783 30.5473L17.6207 35.5974ZM36.8866 30.4073C36.9098 30.6334 36.9356 30.8388 36.9607 30.9955L18.4334 35.6045L18.5954 30.5895L22.5563 29.7752L23.1413 29.9167L25.3338 29.2041L35.4404 27.1273L37.3778 26.7287C36.7584 27.8612 36.784 29.4118 36.8866 30.4073ZM37.9071 23.5917C37.8734 23.5925 37.8397 23.597 37.808 23.607L36.4106 23.9982L23.1057 27.7289L22.943 22.679L27.3082 21.2552L37.878 17.8081C37.8794 17.8075 38.4341 17.6843 38.8412 18.0983C39.2353 18.5011 39.4308 19.2937 39.4077 20.3896C39.3388 23.4602 37.9574 23.5878 37.9071 23.5917Z" fill="#4D2900"/>
</g>
<defs>
<clipPath id="clip0_0_206">
<rect width="42" height="42" fill="white"/>
</clipPath>
</defs>
</svg>
